# xmcd
#
# Track frame offsets:
# 150
# 15286
# 27190
# 43723
# 64131
# 78987
# 94619
# 109675
# 123804
# 139642
# 154694
# 169117
#
# Disc length: 2451 seconds
#
#
# Revision: 0
# Processed by: cddbd v1.5PL3 Copyright (c) Steve Scherf et al.
# Submitted via: FreeRIP 2.53 
#
DISCID=8609910c
DTITLE=Cash, Rosanne - Hits 1979-1989
DYEAR=1900
DGENRE=
TTITLE0=Seven Year Ache
TTITLE1=I Don't Want To Spoil The Party
TTITLE2=Hold On
TTITLE3=Blue Moon With Heartache
TTITLE4=My Baby Thinks He's A Train
TTITLE5=No Memories Hangin' Around
TTITLE6=I Don't Know Why You Don't Want Me
TTITLE7=I Wonder
TTITLE8=Never Be You
TTITLE9=The Way We Make A BRoken Heart
TTITLE10=Tennessee Flat  Top Box
TTITLE11=Black and White
EXTD=
EXTT0=
EXTT1=
EXTT2=
EXTT3=
EXTT4=
EXTT5=
EXTT6=
EXTT7=
EXTT8=
EXTT9=
EXTT10=
EXTT11=
PLAYORDER=
